<svg xmlns="http://www.w3.org/2000/svg" xmlns:xlink="http://www.w3.org/1999/xlink" version="1.1" width="256" height="256" viewBox="0 0 256 256" xml:space="preserve">

<defs>
</defs>
<g style="stroke: none; stroke-width: 0; stroke-dasharray: none; stroke-linecap: butt; stroke-linejoin: miter; stroke-miterlimit: 10; fill: none; fill-rule: nonzero; opacity: 1;" transform="translate(1.4065934065934016 1.4065934065934016) scale(2.81 2.81)" >
	<path d="M 25.763 60.863 l 7.224 7.224 c 0.647 0.647 1.641 0.793 2.447 0.361 L 44.09 63.8 c 0.64 -0.344 1.414 -0.327 2.039 0.044 L 58.76 71.34 c 0.901 0.535 1.264 1.653 0.842 2.612 c -1.079 2.456 -3.044 6.958 -3.824 8.948 c -0.164 0.419 -0.408 0.803 -0.749 1.097 c -8.418 7.297 -25.166 -1.594 -37.985 -14.413 C 4.223 56.764 -4.668 40.016 2.629 31.598 c 0.295 -0.34 0.679 -0.584 1.097 -0.749 c 1.99 -0.78 6.492 -2.745 8.948 -3.824 c 0.959 -0.422 2.078 -0.059 2.612 0.842 l 7.495 12.631 c 0.371 0.625 0.387 1.399 0.044 2.039 l -4.647 8.656 c -0.432 0.806 -0.286 1.8 0.361 2.447 L 25.763 60.863 z" style="stroke: none; stroke-width: 1; stroke-dasharray: none; stroke-linecap: butt; stroke-linejoin: miter; stroke-miterlimit: 10; fill: rgb(0,0,0); fill-rule: nonzero; opacity: 1;" transform=" matrix(1 0 0 1 0 0) " stroke-linecap="round" />
	<path d="M 55.497 8.971 H 49.9 V 6.172 c 0 -1.546 1.253 -2.799 2.799 -2.799 h 0 c 1.546 0 2.799 1.253 2.799 2.799 V 8.971 z" style="stroke: none; stroke-width: 1; stroke-dasharray: none; stroke-linecap: butt; stroke-linejoin: miter; stroke-miterlimit: 10; fill: rgb(0,0,0); fill-rule: nonzero; opacity: 1;" transform=" matrix(1 0 0 1 0 0) " stroke-linecap="round" />
	<path d="M 79.846 8.971 h -5.597 V 6.172 c 0 -1.546 1.253 -2.799 2.799 -2.799 h 0 c 1.546 0 2.799 1.253 2.799 2.799 V 8.971 z" style="stroke: none; stroke-width: 1; stroke-dasharray: none; stroke-linecap: butt; stroke-linejoin: miter; stroke-miterlimit: 10; fill: rgb(0,0,0); fill-rule: nonzero; opacity: 1;" transform=" matrix(1 0 0 1 0 0) " stroke-linecap="round" />
	<path d="M 90 14.475 v -1.558 c 0 -2.179 -1.766 -3.946 -3.946 -3.946 H 43.692 c -2.179 0 -3.946 1.766 -3.946 3.946 v 1.558 H 90 z" style="stroke: none; stroke-width: 1; stroke-dasharray: none; stroke-linecap: butt; stroke-linejoin: miter; stroke-miterlimit: 10; fill: rgb(0,0,0); fill-rule: nonzero; opacity: 1;" transform=" matrix(1 0 0 1 0 0) " stroke-linecap="round" />
	<path d="M 39.746 18.566 v 27.107 c 0 2.179 1.766 3.946 3.946 3.946 h 9.591 v 10.646 l 12.093 -10.646 h 20.679 c 2.179 0 3.946 -1.766 3.946 -3.946 V 18.566 H 39.746 z M 75.912 29.033 L 63.909 42.676 c -0.511 0.576 -1.241 0.908 -2.011 0.917 c -0.01 0 -0.02 0 -0.031 0 c -0.759 0 -1.484 -0.315 -2.001 -0.872 l -5.992 -6.447 c -1.027 -1.105 -0.963 -2.833 0.141 -3.86 c 1.105 -1.027 2.833 -0.964 3.86 0.141 l 3.946 4.246 l 10.007 -11.397 c 1.001 -1.127 2.726 -1.23 3.856 -0.227 C 76.812 26.179 76.914 27.905 75.912 29.033 z" style="stroke: none; stroke-width: 1; stroke-dasharray: none; stroke-linecap: butt; stroke-linejoin: miter; stroke-miterlimit: 10; fill: rgb(0,0,0); fill-rule: nonzero; opacity: 1;" transform=" matrix(1 0 0 1 0 0) " stroke-linecap="round" />
</g>
</svg>